<?xml version="1.0" encoding="utf-8"?>
<!-- Generator: Adobe Illustrator 21.0.2, SVG Export Plug-In . SVG Version: 6.00 Build 0)  -->
<svg version="1.1" id="Logo" xmlns="http://www.w3.org/2000/svg" xmlns:xlink="http://www.w3.org/1999/xlink" x="0px" y="0px"
	 viewBox="0 0 280.1 159.1" style="enable-background:new 0 0 280.1 159.1;" xml:space="preserve">
<style type="text/css">
	.st0{fill:#FFFFFF;}
</style>
<g>
	<g>
		<path class="st0" d="M7.9,131.8c-4.8,0-7.9-3.3-7.9-7.8v-18.3c0-4.5,3.1-7.8,7.9-7.8c4.8,0,7.4,3.1,7.4,7.5v4.7h-4.6v-4.8
			c0-1.6-0.9-2.7-2.7-2.7c-1.8,0-2.7,1.1-2.7,2.7v19.2c0,1.5,0.9,2.7,2.7,2.7c1.8,0,2.7-1.1,2.7-2.7v-4.9h4.6v4.8
			C15.3,128.6,12.7,131.8,7.9,131.8z"/>
		<path class="st0" d="M28.4,117.7h-1.5v13.5h-5.2V98.5h8.5c3.7,0,6.4,2.1,6.4,6.6v6.4c0,2.7-1,4.6-3.2,5.5l3.8,14.3h-5.4
			L28.4,117.7z M29.5,113.6c1.3,0,2-0.7,2-2.3v-6.2c0-1.4-0.5-2.1-1.8-2.1h-2.8v10.7H29.5z"/>
		<path class="st0" d="M50.6,131.8c-4.7,0-7.8-3.2-7.8-7.8v-18.4c0-4.5,3.1-7.8,7.8-7.8s7.8,3.2,7.8,7.8V124
			C58.4,128.6,55.3,131.8,50.6,131.8z M53.1,105.2c0-1.6-0.9-2.7-2.6-2.7c-1.6,0-2.6,1.1-2.6,2.7v19.2c0,1.6,0.9,2.7,2.6,2.7
			c1.6,0,2.6-1.1,2.6-2.7V105.2z"/>
		<path class="st0" d="M72.7,131.8c-4.7,0-7.8-3.2-7.8-7.8v-18.4c0-4.5,3.1-7.8,7.8-7.8s7.8,3.2,7.8,7.8V124
			C80.5,128.6,77.4,131.8,72.7,131.8z M75.3,105.2c0-1.6-0.9-2.7-2.6-2.7c-1.6,0-2.6,1.1-2.6,2.7v19.2c0,1.6,0.9,2.7,2.6,2.7
			c1.6,0,2.6-1.1,2.6-2.7V105.2z"/>
		<path class="st0" d="M97.9,131.2l-3.6-13.6l-1.8,4.7v8.9h-5.2V98.5h5.2v15.4l5.4-15.4h5.2l-5.3,13.9l5.5,18.8H97.9z"/>
		<path class="st0" d="M108.9,131.2V98.5H122v4.6h-7.9v9h5.5v4.3h-5.5v10h7.9v4.8H108.9z"/>
		<path class="st0" d="M136.2,131.2h-8V98.5h8c4.7,0,7.5,2.9,7.5,7.8v17.3C143.6,128.5,140.9,131.2,136.2,131.2z M138.4,106.2
			c0-2.1-0.8-3.1-2.6-3.1h-2.4v23.4h2.4c1.8,0,2.6-1.1,2.6-3.1V106.2z"/>
		<path class="st0" d="M168.5,131.2h-4.6l-2.7-19.5l-3,19.5h-4.6l-4.8-32.7h5.2l2.4,21.9l3.1-21.9h4l2.8,21.9l2.7-21.9h4.8
			L168.5,131.2z"/>
		<path class="st0" d="M185.8,117.7h-1.5v13.5h-5.2V98.5h8.5c3.7,0,6.4,2.1,6.4,6.6v6.4c0,2.7-1,4.6-3.2,5.5l3.8,14.3h-5.4
			L185.8,117.7z M186.9,113.6c1.3,0,2-0.7,2-2.3v-6.2c0-1.4-0.5-2.1-1.8-2.1h-2.8v10.7H186.9z"/>
		<path class="st0" d="M200.4,131.2V98.5h13.1v4.6h-7.9v9h5.5v4.3h-5.5v10h7.9v4.8H200.4z"/>
		<path class="st0" d="M231.7,131.2l-5.5-14.8l-1.8-5v19.9h-4.7V98.5h4.6l5.1,15l1.7,5.1V98.5h4.7v32.7H231.7z"/>
		<path class="st0" d="M250.4,131.8c-4.8,0-7.9-3.3-7.9-7.8v-18.3c0-4.5,3.1-7.8,7.9-7.8c4.8,0,7.4,3.1,7.4,7.5v4.7h-4.6v-4.8
			c0-1.6-0.9-2.7-2.7-2.7s-2.7,1.1-2.7,2.7v19.2c0,1.5,0.9,2.7,2.7,2.7s2.7-1.1,2.7-2.7v-4.9h4.6v4.8
			C257.8,128.6,255.2,131.8,250.4,131.8z"/>
		<path class="st0" d="M274.9,131.2v-13.8h-5.5v13.8h-5.2V98.5h5.2v14.2h5.5V98.5h5.2v32.7H274.9z"/>
		<path class="st0" d="M44,156.9l1.5-1.7c1.3,1.1,2.7,1.8,4.4,1.8c1.5,0,2.5-0.7,2.5-1.7v0c0-1-0.6-1.5-3.1-2.1
			c-3-0.7-4.6-1.6-4.6-4.1v0c0-2.4,2-4,4.7-4c2,0,3.6,0.6,5,1.7l-1.3,1.8c-1.2-0.9-2.5-1.4-3.8-1.4c-1.4,0-2.3,0.7-2.3,1.6v0
			c0,1.1,0.6,1.5,3.3,2.2c2.9,0.7,4.5,1.8,4.5,4.1v0c0,2.6-2,4.1-5,4.1C47.6,159.1,45.6,158.3,44,156.9z"/>
		<path class="st0" d="M60.9,145h2.6l4.2,6.6L72,145h2.6v13.9h-2.4v-9.9l-4.4,6.5h-0.1l-4.3-6.5v9.9h-2.4V145z"/>
		<path class="st0" d="M80.9,152L80.9,152c0-3.9,3-7.2,7.3-7.2s7.2,3.2,7.2,7.1v0c0,3.9-3,7.2-7.3,7.2
			C83.9,159.1,80.9,155.9,80.9,152z M92.8,152L92.8,152c0-2.7-2-5-4.7-5c-2.8,0-4.7,2.2-4.7,4.9v0c0,2.7,2,4.9,4.7,4.9
			C90.9,156.9,92.8,154.7,92.8,152z"/>
		<path class="st0" d="M101.7,145h2.4v7l6.6-7h3l-5.8,6l6,7.9h-3l-4.7-6.2l-2.2,2.2v4h-2.4V145z"/>
		<path class="st0" d="M119.4,145h10.3v2.2h-7.8v3.6h7v2.2h-7v3.7h7.9v2.2h-10.4V145z"/>
		<path class="st0" d="M171.9,145h2.6l4.2,6.6l4.2-6.6h2.6v13.9h-2.4v-9.9l-4.4,6.5h-0.1l-4.3-6.5v9.9h-2.4V145z"/>
		<path class="st0" d="M192.4,145h10.3v2.2h-7.8v3.6h7v2.2h-7v3.7h7.9v2.2h-10.4V145z"/>
		<path class="st0" d="M214,144.9h2.3l6.1,14h-2.6l-1.4-3.3h-6.6l-1.4,3.3h-2.5L214,144.9z M217.5,153.4l-2.4-5.5l-2.4,5.5H217.5z"
			/>
		<path class="st0" d="M229.7,147.3h-4.4V145h11.2v2.3h-4.4v11.6h-2.5V147.3z"/>
	</g>
	<g>
		<path class="st0" d="M152.6,154.1c-0.8,0.7-1.8,1.1-2.9,1.1c-1.9,0-3.4-1.1-3.4-2.9v0c0-1.3,0.7-2.2,1.9-2.7
			c-0.5-0.7-0.7-1.3-0.7-2v0c0-1.4,1.1-2.6,3-2.6c1.7,0,2.8,1.1,2.8,2.5v0c0,1.3-0.9,2.1-2.1,2.6l1.3,1.3c0.3-0.5,0.7-1.1,1-1.7
			l1.6,0.9c-0.4,0.7-0.8,1.4-1.3,2.1l1.5,1.5l-1.6,1.1L152.6,154.1z M151.4,152.9l-1.9-1.9c-0.7,0.3-0.9,0.8-0.9,1.3v0
			c0,0.7,0.6,1.2,1.4,1.2C150.5,153.5,150.9,153.2,151.4,152.9z M151.5,147.6L151.5,147.6c0-0.6-0.4-1-0.9-1c-0.6,0-1,0.4-1,1v0
			c0,0.4,0.2,0.8,0.6,1.2C151.1,148.6,151.5,148.2,151.5,147.6z"/>
	</g>
	<rect x="146.4" y="157.2" class="st0" width="8.7" height="1.8"/>
	<path class="st0" d="M170.8,25V9c0-1.4-0.1-2.8-0.3-4.1c-0.4-2.8-2.8-4.9-5.6-4.9h-14.9h-5.1h-16.7c-2.7,0-5.1,1.9-5.6,4.6
		c-0.3,1.8-0.3,60.9,0,62.6c0.5,2.6,2.9,4.6,5.6,4.6h16.7h5.1h14.9c2.8,0,5.3-2.1,5.6-4.9c0.2-1.3,0.3-2.7,0.3-4.1v-16h-18.4V63
		c0,1.2-0.3,2.9-1.5,3.9l-3.4,2.7l-3.4-2.7c-1.3-1-1.5-2.6-1.5-3.8V8.6c0-1.2,0.3-2.8,1.5-3.8l3.4-2.7l3.4,2.7
		c1.3,1,1.5,2.7,1.5,3.9V25H170.8z M157.7,63V52.1h7.7v10.6c0,1.2-0.1,2.3-0.2,3.4c0,0.1-0.2,0.2-0.3,0.2h-7.6
		C157.5,65.3,157.7,64.2,157.7,63z M137.5,66.3h-9.3c-0.1,0-0.2-0.1-0.3-0.2c-0.3-4-0.3-56.7,0-60.6c0-0.1,0.2-0.2,0.3-0.2h9.3
		c-0.3,1-0.4,2.1-0.4,3.2v54.5C137,64.3,137.2,65.3,137.5,66.3z M164.8,5.4c0.2,0,0.3,0.1,0.3,0.2c0.1,1.1,0.2,2.2,0.2,3.4v10.6
		h-7.7V8.7c0-1.2-0.2-2.3-0.5-3.4H164.8z"/>
</g>
</svg>
