<?xml version="1.0" encoding="UTF-8"?><svg id="Layer_1" xmlns="http://www.w3.org/2000/svg" viewBox="0 0 218.84 124.34"><defs><style>.cls-1{fill:#f1f2f2;}</style></defs><polygon class="cls-1" points="124.45 62.75 114.31 57.24 114.31 15.67 127.29 22.73 147.83 15.18 119.92 0 107.4 6.81 107.4 53.48 100.48 49.72 100.48 10.57 71.44 26.38 71.44 56.26 108.48 76.39 144.22 56.94 139.68 54.47 124.45 62.75"/><path class="cls-1" d="m5.12,107.19c-1.64,0-2.78-.51-3.74-1.47-1.38-1.38-1.38-3.1-1.38-5.36s0-3.99,1.38-5.37c.96-.96,2.1-1.47,3.74-1.47,2.55,0,4.59,1.42,5.08,4.38h-3.36c-.21-.76-.62-1.44-1.72-1.44-.6,0-1.06.25-1.3.57-.3.4-.51.87-.51,3.33s.21,2.93.51,3.32c.25.32.7.57,1.3.57,1.1,0,1.51-.68,1.72-1.44h3.36c-.49,2.97-2.53,4.38-5.08,4.38Z"/><path class="cls-1" d="m22.9,107.08l-2.38-5.01h-1.11v5.01h-3.31v-13.45h5.33c2.98,0,4.59,2.12,4.59,4.33,0,1.83-1.13,2.98-2.19,3.51l2.91,5.61h-3.83Zm-1.62-10.48h-1.87v2.72h1.87c.91,0,1.44-.66,1.44-1.36s-.53-1.36-1.44-1.36Z"/><path class="cls-1" d="m40.87,105.72c-.96.96-2.1,1.47-3.74,1.47s-2.78-.51-3.74-1.47c-1.38-1.38-1.38-3.1-1.38-5.36s0-3.99,1.38-5.37c.96-.96,2.1-1.47,3.74-1.47s2.78.51,3.74,1.47c1.38,1.38,1.38,3.1,1.38,5.37s0,3.99-1.38,5.36Zm-2.42-8.67c-.25-.32-.72-.58-1.32-.58s-1.08.26-1.32.58c-.3.4-.49.85-.49,3.31s.19,2.89.49,3.29c.25.32.72.6,1.32.6s1.08-.28,1.32-.6c.3-.4.49-.83.49-3.29s-.19-2.91-.49-3.31Z"/><path class="cls-1" d="m57.07,105.72c-.96.96-2.1,1.47-3.74,1.47s-2.78-.51-3.74-1.47c-1.38-1.38-1.38-3.1-1.38-5.36s0-3.99,1.38-5.37c.96-.96,2.1-1.47,3.74-1.47s2.78.51,3.74,1.47c1.38,1.38,1.38,3.1,1.38,5.37s0,3.99-1.38,5.36Zm-2.42-8.67c-.25-.32-.72-.58-1.32-.58s-1.08.26-1.32.58c-.3.4-.49.85-.49,3.31s.19,2.89.49,3.29c.25.32.72.6,1.32.6s1.08-.28,1.32-.6c.3-.4.49-.83.49-3.29s-.19-2.91-.49-3.31Z"/><path class="cls-1" d="m72.27,107.08l-3.1-5.52-1.13,1.3v4.21h-3.27v-13.45h3.27v4.76l3.89-4.76h4.04l-4.59,5.44,4.74,8.01h-3.85Z"/><path class="cls-1" d="m81.84,107.08v-13.45h9.14v2.95h-5.84v2.25h4.99v2.95h-4.99v2.36h5.84v2.95h-9.14Z"/><path class="cls-1" d="m106.75,104.81c-.93,1.49-2.34,2.27-4.36,2.27h-4.99v-13.45h4.99c2.02,0,3.44.77,4.36,2.27.66,1.08.66,2.13.66,4.46s0,3.38-.66,4.46Zm-3-7.48c-.3-.45-.76-.76-1.59-.76h-1.45v7.56h1.45c.83,0,1.29-.3,1.59-.75.26-.38.36-.74.36-3.02s-.09-2.64-.36-3.02Z"/><path class="cls-1" d="m134.27,107.08h-2.7l-2.17-6.63-2.17,6.63h-2.68l-3.7-13.45h3.46l1.76,7.1,2.17-7.1h2.34l2.17,7.1,1.76-7.1h3.46l-3.68,13.45Z"/><path class="cls-1" d="m150.49,107.08l-2.38-5.01h-1.11v5.01h-3.31v-13.45h5.33c2.98,0,4.59,2.12,4.59,4.33,0,1.83-1.13,2.98-2.19,3.51l2.91,5.61h-3.83Zm-1.62-10.48h-1.87v2.72h1.87c.91,0,1.44-.66,1.44-1.36s-.53-1.36-1.44-1.36Z"/><path class="cls-1" d="m160.19,107.08v-13.45h9.14v2.95h-5.84v2.25h4.99v2.95h-4.99v2.36h5.84v2.95h-9.14Z"/><path class="cls-1" d="m183.37,107.08l-4.31-6.76v6.76h-3.31v-13.45h2.89l4.31,6.76v-6.76h3.31v13.45h-2.89Z"/><path class="cls-1" d="m197.73,107.19c-1.64,0-2.78-.51-3.74-1.47-1.38-1.38-1.38-3.1-1.38-5.36s0-3.99,1.38-5.37c.96-.96,2.1-1.47,3.74-1.47,2.55,0,4.59,1.42,5.08,4.38h-3.36c-.21-.76-.62-1.44-1.72-1.44-.6,0-1.06.25-1.3.57-.3.4-.51.87-.51,3.33s.21,2.93.51,3.32c.25.32.7.57,1.3.57,1.1,0,1.51-.68,1.72-1.44h3.36c-.49,2.97-2.53,4.38-5.08,4.38Z"/><path class="cls-1" d="m215.53,107.08v-5.33h-3.51v5.33h-3.31v-13.45h3.31v5.18h3.51v-5.18h3.31v13.45h-3.31Z"/><path class="cls-1" d="m57.75,124.34c-1.27,0-2.31-.23-3.16-1.1l1.31-1.31c.43.43,1.19.58,1.86.58.81,0,1.19-.27,1.19-.75,0-.2-.05-.36-.16-.49-.11-.11-.28-.19-.55-.22l-1-.14c-.74-.11-1.3-.35-1.67-.74-.39-.4-.57-.96-.57-1.67,0-1.52,1.15-2.63,3.04-2.63,1.19,0,2.09.28,2.8.99l-1.29,1.29c-.43-.43-.91-.49-1.58-.49-.71,0-1,.41-1,.77,0,.1.03.26.16.39.11.1.28.21.57.25l1,.14c.75.1,1.29.34,1.64.69.44.43.62,1.05.62,1.82,0,1.69-1.46,2.62-3.21,2.62Z"/><path class="cls-1" d="m68.63,124.27v-3.99l-1.18,2.06h-1.31l-1.18-2.06v3.99h-2.04v-8.32h2.01l1.87,3.67,1.87-3.67h2.01v8.32h-2.05Z"/><path class="cls-1" d="m78.27,123.43c-.6.6-1.3.91-2.31.91s-1.72-.32-2.31-.91c-.85-.85-.85-1.92-.85-3.32s0-2.47.85-3.32c.6-.6,1.3-.91,2.31-.91s1.72.32,2.31.91c.85.85.85,1.92.85,3.32s0,2.47-.85,3.32Zm-1.5-5.36c-.15-.2-.44-.36-.82-.36s-.67.16-.82.36c-.19.25-.3.53-.3,2.04s.12,1.79.3,2.03c.15.2.44.37.82.37s.67-.18.82-.37c.19-.25.3-.51.3-2.03s-.12-1.8-.3-2.04Z"/><path class="cls-1" d="m85.85,124.27l-1.92-3.41-.7.81v2.61h-2.02v-8.32h2.02v2.95l2.41-2.95h2.5l-2.84,3.37,2.93,4.96h-2.38Z"/><path class="cls-1" d="m89.94,124.27v-8.32h5.66v1.82h-3.61v1.39h3.09v1.82h-3.09v1.46h3.61v1.82h-5.66Z"/><path class="cls-1" d="m103.53,122.87c-.57.92-1.45,1.4-2.7,1.4h-3.08v-8.32h3.08c1.25,0,2.13.48,2.7,1.4.41.67.41,1.32.41,2.76s0,2.09-.41,2.76Zm-1.86-4.63c-.19-.28-.47-.47-.98-.47h-.9v4.68h.9c.51,0,.79-.19.98-.47.16-.23.22-.46.22-1.87s-.06-1.64-.22-1.87Z"/><path class="cls-1" d="m115.06,124.27v-3.99l-1.18,2.06h-1.31l-1.18-2.06v3.99h-2.04v-8.32h2.01l1.87,3.67,1.87-3.67h2.01v8.32h-2.05Z"/><path class="cls-1" d="m119.45,124.27v-8.32h5.66v1.82h-3.61v1.39h3.09v1.82h-3.09v1.46h3.61v1.82h-5.66Z"/><path class="cls-1" d="m132.18,124.27l-.39-1.24h-2.56l-.41,1.24h-2.14l3.03-8.32h1.58l3.03,8.32h-2.14Zm-1.62-5.17l-.75,2.22h1.45l-.7-2.22Z"/><path class="cls-1" d="m138.85,117.77v6.5h-2.04v-6.5h-2.05v-1.82h6.14v1.82h-2.05Z"/><path class="cls-1" d="m148.98,124.34c-1.02,0-1.72-.32-2.31-.91-.85-.85-.85-1.92-.85-3.32s0-2.47.85-3.32c.6-.6,1.3-.91,2.31-.91,1.58,0,2.84.88,3.14,2.71h-2.08c-.13-.47-.39-.89-1.06-.89-.37,0-.65.15-.81.35-.19.25-.32.54-.32,2.06s.13,1.81.32,2.06c.15.2.43.35.81.35.68,0,.93-.42,1.06-.89h2.08c-.3,1.83-1.57,2.71-3.14,2.71Z"/><path class="cls-1" d="m159.27,123.43c-.6.6-1.3.91-2.31.91s-1.72-.32-2.31-.91c-.85-.85-.85-1.92-.85-3.32s0-2.47.85-3.32c.6-.6,1.3-.91,2.31-.91s1.72.32,2.31.91c.85.85.85,1.92.85,3.32s0,2.47-.85,3.32Zm-1.5-5.36c-.15-.2-.44-.36-.82-.36s-.67.16-.82.36c-.19.25-.3.53-.3,2.04s.12,1.79.3,2.03c.15.2.44.37.82.37s.67-.18.82-.37c.19-.25.3-.51.3-2.03s-.12-1.8-.3-2.04Z"/><path class="cls-1" d="m161.97,124.27v-2.1h2.1v2.1h-2.1Z"/></svg>